<svg version="1.2" baseProfile="tiny-ps" xmlns="http://www.w3.org/2000/svg" viewBox="0 0 40 40" width="40" height="40">
	<title>arrow-left-svg</title>
	<style>
		tspan { white-space:pre }
		.shp0 { fill: #10a4a8 } 
		.shp1 { fill: none } 
		.shp2 { fill: #14d0d5 } 
	</style>
	<g id="Layer">
		<g id="Layer">
			<g id="Layer">
				<path id="Layer" fill-rule="evenodd" class="shp0" d="M20 0C8.95 0 0 8.95 0 20C0 31.05 8.95 40 20 40C31.05 40 40 31.05 40 20C40 8.95 31.05 0 20 0Z" />
				<path id="Layer" class="shp1" d="M32 8L8 8L8 32L32 32L32 8Z" />
				<path id="Layer" fill-rule="evenodd" class="shp2" d="M30 20.34C30 21.26 29.25 22.01 28.33 22.01L15.68 22.01L19.51 25.83C19.83 26.14 20.01 26.57 20.01 27.01C20.01 27.46 19.83 27.88 19.51 28.2C19.2 28.51 18.77 28.69 18.33 28.69C17.88 28.69 17.46 28.51 17.14 28.2L10.47 21.53C10.32 21.37 10.21 21.18 10.13 20.98C9.96 20.57 9.96 20.12 10.13 19.71C10.21 19.51 10.32 19.32 10.47 19.16L17.14 12.49C17.57 12.07 18.18 11.9 18.76 12.06C19.34 12.21 19.79 12.66 19.95 13.24C20.1 13.82 19.94 14.44 19.51 14.86L15.68 18.68L28.33 18.68C29.25 18.68 30 19.42 30 20.34L30 20.34Z" />
			</g>
		</g>
	</g>
</svg>