<svg version="1.2" baseProfile="tiny-ps" xmlns="http://www.w3.org/2000/svg" viewBox="0 0 40 40" width="40" height="40">
	<title>arrow-left-svg</title>
	<style>
		tspan { white-space:pre }
		.shp0 { fill: #10a4a8 } 
		.shp1 { fill: none } 
		.shp2 { fill: #14d0d5 } 
	</style>
	<g id="Layer">
		<g id="Layer">
			<g id="Layer">
				<path id="Layer" fill-rule="evenodd" class="shp0" d="M20 0C31.05 0 40 8.95 40 20C40 31.05 31.05 40 20 40C8.95 40 0 31.05 0 20C0 8.95 8.95 0 20 0Z" />
				<path id="Layer" class="shp1" d="M8 8L32 8L32 32L8 32L8 8Z" />
				<path id="Layer" fill-rule="evenodd" class="shp2" d="M10 20.34C10 21.26 10.75 22.01 11.67 22.01L24.32 22.01L20.49 25.83C20.17 26.14 19.99 26.57 19.99 27.01C19.99 27.46 20.17 27.88 20.49 28.2C20.8 28.51 21.23 28.69 21.67 28.69C22.12 28.69 22.54 28.51 22.86 28.2L29.52 21.53C29.68 21.37 29.8 21.18 29.88 20.98C30.04 20.57 30.04 20.12 29.88 19.71C29.8 19.51 29.68 19.32 29.52 19.16L22.86 12.49C22.43 12.07 21.82 11.9 21.24 12.06C20.66 12.21 20.21 12.66 20.05 13.24C19.9 13.82 20.06 14.44 20.49 14.86L24.32 18.68L11.67 18.68C10.75 18.68 10 19.42 10 20.34L10 20.34Z" />
			</g>
		</g>
	</g>
</svg>