<svg xmlns="http://www.w3.org/2000/svg" width="64" height="64" viewBox="0 0 64 64">
    <g fill="none" fill-rule="evenodd">
        <g>
            <path d="M0 0H64V64H0z"/>
            <path fill="#FFF" fill-rule="nonzero" d="M15.833 24.667h33c1.013 0 1.834-.821 1.834-1.834 0-1.012-.821-1.833-1.834-1.833h-33C14.821 21 14 21.82 14 22.833s.82 1.834 1.833 1.834zm33 14.666h-33c-1.012 0-1.833.821-1.833 1.834 0 1.012.82 1.833 1.833 1.833h33c1.013 0 1.834-.82 1.834-1.833s-.821-1.834-1.834-1.834zm0-9.166h-33c-1.012 0-1.833.82-1.833 1.833s.82 1.833 1.833 1.833h33c1.013 0 1.834-.82 1.834-1.833s-.821-1.833-1.834-1.833z"/>
        </g>
    </g>
</svg>
