<svg xmlns="http://www.w3.org/2000/svg" width="64" height="64" viewBox="0 0 64 64">
    <g fill="none" fill-rule="evenodd">
        <g>
            <path d="M0 0H64V64H0z"/>
            <path fill="#FFF" fill-rule="nonzero" d="M42.538 41.538c-.616.616-1.615.616-2.23 0L32.5 33.731l-7.807 7.807c-.616.616-1.615.616-2.231 0-.616-.616-.616-1.615 0-2.23l7.807-7.808-7.807-7.807c-.616-.616-.616-1.615 0-2.231.616-.616 1.615-.616 2.23 0l7.808 7.807 7.807-7.807c.616-.616 1.615-.616 2.231 0 .616.616.616 1.615 0 2.23L34.731 31.5l7.807 7.807c.616.616.616 1.615 0 2.231z"/>
        </g>
    </g>
</svg>
