<svg version="1.2" baseProfile="tiny-ps" xmlns="http://www.w3.org/2000/svg" viewBox="0 0 500 500" width="500" height="500">
	<title>heart-shape-alt-svg</title>
	<style>
		tspan { white-space:pre }
		.shp0 { fill: none;stroke: #29d1cb;stroke-width: 3 } 
	</style>
	<g id="Layer">
		<g id="Layer">
			<path id="Layer" class="shp0" d="M360.5 498.5L360.5 432.49L166.39 432.49C165.44 432.49 164.64 432.48 163.88 432.46C110.41 431.12 67.49 387.18 67.49 333.56L67.49 330.26C67.49 276.65 110.41 232.7 163.87 231.36C164.64 231.34 165.44 231.33 166.39 231.33L231.41 231.33L231.41 166.44C231.41 165.48 231.42 164.61 231.44 163.78C232.86 110.35 276.76 67.51 330.31 67.51L333.61 67.51C387.15 67.51 431.06 110.35 432.48 163.78C432.5 164.61 432.51 165.48 432.51 166.44L432.51 360.47L498.49 360.47L498.5 166.44L498.5 166.44C498.5 165.53 498.49 164.67 498.48 163.84C497.09 73.99 423.57 1.5 333.61 1.5L330.31 1.5C240.35 1.5 166.82 74 165.44 163.87L165.41 165.32L163.96 165.34C74.06 166.64 1.5 240.22 1.5 330.26L1.5 333.56C1.5 423.59 74.05 497.16 163.94 498.48C164.78 498.49 165.6 498.5 166.39 498.5L360.5 498.5L360.5 498.5ZM432.5 498.5L447.72 498.5C475.76 498.5 498.49 475.76 498.49 447.72L498.49 432.49L432.5 432.49L432.5 498.5Z" />
		</g>
	</g>
</svg>