<svg xmlns="http://www.w3.org/2000/svg" width="500" height="500" viewBox="0 0 500 500">
    <g fill="none" fill-rule="evenodd">
        <g stroke="#E6EBF0" stroke-width="3">
            <path d="M3309.501 893.5v-66.01h-194.11c-.953 0-1.752-.01-2.513-.032-53.472-1.339-96.385-45.282-96.385-98.897v-3.3c0-53.615 42.913-97.558 96.378-98.898.768-.022 1.567-.031 2.52-.031h65.015v-64.893c0-.958.01-1.825.033-2.657 1.419-53.433 45.323-96.272 98.873-96.272h3.3c53.542 0 97.444 42.84 98.864 96.27.023.834.033 1.7.033 2.66v194.033h65.984l.007-194.034h0c0-.911-.008-1.764-.024-2.594-1.383-89.854-74.909-162.345-164.864-162.345h-3.3c-89.966 0-163.496 72.502-164.874 162.369l-.023 1.456-1.456.02c-89.898 1.298-162.459 74.873-162.459 164.916v3.3c0 90.034 72.545 163.602 162.444 164.915.84.016 1.652.024 2.446.024h194.111zm71.994 0h15.227c28.04 0 50.77-22.737 50.77-50.784v-15.231h-65.997V893.5z" transform="translate(-2949 -395)"/>
        </g>
    </g>
</svg>
