<svg xmlns="http://www.w3.org/2000/svg" width="64" height="64" viewBox="0 0 64 64">
    <g fill="none" fill-rule="evenodd">
        <g>
            <g transform="translate(-4558 -3659) translate(4558 3659)">
                <rect width="64" height="64" fill="#14D0D5" rx="32"/>
                <path fill="#FFF" fill-rule="nonzero" d="M35.477 30.18c1.478-2.035 1.182-4.857-.687-6.54-1.87-1.682-4.707-1.682-6.576 0-1.87 1.683-2.166 4.505-.688 6.54-.675.43-1.277.968-1.78 1.59-.359.463-.443 1.082-.22 1.624.222.541.716.923 1.296 1.002.58.078 1.157-.159 1.515-.622.787-1 1.988-1.586 3.26-1.59 1.273.004 2.473.59 3.26 1.59.303.374.76.59 1.24.588.609-.002 1.162-.352 1.426-.9s.192-1.199-.185-1.676c-.527-.635-1.156-1.178-1.86-1.606zm-3.96-1.16c-.948-.001-1.72-.765-1.731-1.714-.012-.949.742-1.73 1.69-1.753.95-.023 1.74.721 1.775 1.67.017.47-.158.927-.485 1.266-.327.34-.777.53-1.248.53zm13.454-.796c-.454-4.726-3.355-8.868-7.641-10.91s-9.33-1.685-13.286.94c-3.384 2.262-5.578 5.92-5.98 9.97-.394 4.024 1.042 8.013 3.912 10.861l8.429 8.445c.298.3.705.47 1.129.47.424 0 .83-.17 1.129-.47l8.396-8.445c2.87-2.848 4.307-6.837 3.912-10.86zm-6.138 8.62l-7.315 7.314-7.315-7.315c-2.183-2.183-3.274-5.228-2.974-8.3.302-3.12 1.989-5.94 4.596-7.682 3.45-2.291 7.936-2.291 11.386 0 2.598 1.735 4.284 4.54 4.596 7.65.31 3.083-.782 6.142-2.974 8.332z"/>
            </g>
        </g>
    </g>
</svg>
