<svg xmlns="http://www.w3.org/2000/svg" width="80" height="80" viewBox="0 0 80 80">
    <g fill="none" fill-rule="evenodd">
        <g>
            <g transform="translate(-4234 -3755) translate(4234 3755)">
                <rect width="80" height="80" fill="#14D0D5" rx="40"/>
                <path fill="#FFF" fill-rule="nonzero" d="M54.206 36.923c-1.222-.221-2.463-.33-3.706-.323-.714 0-1.41 0-2.108.136-.867-1.158-1.975-2.115-3.247-2.805 1.093-1.193 1.7-2.751 1.7-4.369 0-3.624-2.937-6.562-6.562-6.562-3.624 0-6.562 2.938-6.562 6.562.002 1.618.608 3.176 1.7 4.369-1.264.694-2.37 1.643-3.247 2.788-.663-.119-1.36-.119-2.074-.119-1.243.005-2.484.124-3.706.357-.817.15-1.407.869-1.394 1.7v14.025c0 .506.224.985.612 1.309.387.326.897.463 1.394.374 1.018-.222 2.054-.347 3.094-.374 3.294-.004 6.515.96 9.265 2.771l.221.085c.226.098.469.15.714.153.163-.002.324-.03.476-.085h.12l.22-.085c2.777-1.858 6.044-2.846 9.384-2.839 1.04.005 2.075.107 3.094.306.498.089 1.008-.048 1.394-.374.389-.324.613-.803.612-1.309V38.589c-.003-.819-.588-1.519-1.394-1.666zM40.3 26.4c1.652.121 2.93 1.497 2.93 3.154 0 1.656-1.278 3.032-2.93 3.153-1.652-.121-2.93-1.497-2.93-3.154 0-1.656 1.278-3.032 2.93-3.153zm-1.7 26.061c-2.664-1.232-5.564-1.87-8.5-1.87-.56 0-1.122 0-1.7.085V40c1.426-.16 2.866-.13 4.284.085h.187c2.026.372 3.967 1.11 5.73 2.176v10.2zm1.7-13.141c-.756-.436-1.54-.822-2.346-1.156h-.102c-.56-.221-1.122-.442-1.7-.612 1.18-.94 2.64-1.46 4.148-1.479 1.505.01 2.964.518 4.148 1.445-1.443.45-2.833 1.055-4.148 1.802zm11.9 11.356c-3.49-.35-7.011.236-10.2 1.7v-10.2c1.766-1.039 3.708-1.742 5.73-2.074h.34c1.366-.213 2.755-.247 4.13-.102v10.676z"/>
            </g>
        </g>
    </g>
</svg>
