<svg xmlns="http://www.w3.org/2000/svg" width="80" height="80" viewBox="0 0 80 80">
    <g fill="none" fill-rule="evenodd">
        <g>
            <g transform="translate(-4085 -3467) translate(4085 3467)">
                <rect width="80" height="80" fill="#14D0D5" rx="40"/>
                <path fill="#FFF" fill-rule="nonzero" d="M41.217 47.497l-.257-.206c-.096-.064-.2-.116-.309-.154L40.343 47c-.565-.118-1.151.056-1.56.463-.152.166-.273.358-.36.566-.265.638-.12 1.374.366 1.865.487.49 1.222.64 1.862.38.205-.1.396-.226.566-.377.487-.493.629-1.23.36-1.868-.085-.199-.207-.379-.36-.532zM46.857 23H33.143C30.303 23 28 25.303 28 28.143v24c0 2.84 2.303 5.143 5.143 5.143h13.714c2.84 0 5.143-2.303 5.143-5.143v-24C52 25.303 49.697 23 46.857 23zm1.714 29.143c0 .947-.767 1.714-1.714 1.714H33.143c-.947 0-1.714-.767-1.714-1.714v-24c0-.947.767-1.714 1.714-1.714h13.714c.947 0 1.714.767 1.714 1.714v24z"/>
            </g>
        </g>
    </g>
</svg>
