<svg xmlns="http://www.w3.org/2000/svg" width="80" height="80" viewBox="0 0 80 80">
    <g fill="none" fill-rule="evenodd">
        <g>
            <g transform="translate(-4234 -3611) translate(4234 3611)">
                <rect width="80" height="80" fill="#14D0D5" rx="40"/>
                <path fill="#FFF" fill-rule="nonzero" d="M36.429 37.958h3.81c.84 0 1.523-.682 1.523-1.523 0-.842-.682-1.524-1.524-1.524h-1.524v-.762c0-.842-.682-1.524-1.523-1.524-.842 0-1.524.682-1.524 1.524v.838c-1.918.39-3.23 2.169-3.032 4.116.196 1.947 1.836 3.429 3.794 3.427h1.523c.421 0 .762.341.762.762 0 .42-.34.762-.762.762h-3.81c-.84 0-1.523.682-1.523 1.523 0 .842.682 1.524 1.524 1.524h1.524v.762c0 .842.682 1.524 1.524 1.524.841 0 1.523-.682 1.523-1.524v-.838c1.918-.39 3.23-2.169 3.032-4.116-.196-1.947-1.836-3.429-3.794-3.427H36.43c-.421 0-.762-.34-.762-.762 0-.42.34-.762.762-.762zm17.523 2.286h-4.571V26.53c.002-.547-.289-1.053-.762-1.326-.471-.272-1.052-.272-1.524 0l-4.571 2.621-4.572-2.62c-.471-.273-1.052-.273-1.523 0l-4.572 2.62-4.571-2.62c-.472-.273-1.053-.273-1.524 0-.473.272-.764.778-.762 1.325v24.38c0 2.526 2.047 4.572 4.571 4.572h21.334c2.525 0 4.571-2.046 4.571-4.571v-9.143c0-.842-.682-1.524-1.524-1.524zm-24.38 12.19c-.842 0-1.524-.682-1.524-1.523V29.166l3.047 1.737c.478.25 1.047.25 1.524 0l4.572-2.62 4.57 2.62c.478.25 1.047.25 1.525 0l3.047-1.737v21.745c.004.52.097 1.035.275 1.524H29.57zm22.857-1.523c0 .841-.683 1.524-1.524 1.524-.842 0-1.524-.683-1.524-1.524v-7.62h3.048v7.62z"/>
            </g>
        </g>
    </g>
</svg>
