<svg xmlns="http://www.w3.org/2000/svg" width="64" height="64" viewBox="0 0 64 64">
    <g fill="none" fill-rule="evenodd">
        <g>
            <g transform="translate(-4558 -3755) translate(4558 3755)">
                <rect width="64" height="64" fill="#14D0D5" rx="32"/>
                <path fill="#FFF" fill-rule="nonzero" d="M30.545 27.636h5.819c.803 0 1.454-.65 1.454-1.454 0-.804-.651-1.455-1.454-1.455h-2.91v-1.454c0-.804-.65-1.455-1.454-1.455-.803 0-1.455.651-1.455 1.455v1.454c-2.41 0-4.363 1.954-4.363 4.364s1.953 4.364 4.363 4.364h2.91c.803 0 1.454.65 1.454 1.454 0 .803-.651 1.455-1.454 1.455h-5.819c-.803 0-1.454.65-1.454 1.454 0 .804.651 1.455 1.454 1.455h2.91v1.454c0 .804.65 1.455 1.454 1.455.803 0 1.455-.651 1.455-1.455v-1.454c2.41 0 4.363-1.954 4.363-4.364s-1.953-4.364-4.363-4.364h-2.91c-.803 0-1.454-.65-1.454-1.454 0-.803.651-1.455 1.454-1.455zM32 16c-8.837 0-16 7.163-16 16s7.163 16 16 16 16-7.163 16-16c0-4.243-1.686-8.313-4.686-11.314-3-3-7.07-4.686-11.314-4.686zm0 29.09c-7.23 0-13.09-5.86-13.09-13.09 0-7.23 5.86-13.09 13.09-13.09 7.23 0 13.09 5.86 13.09 13.09 0 7.23-5.86 13.09-13.09 13.09z"/>
            </g>
        </g>
    </g>
</svg>
