<svg xmlns="http://www.w3.org/2000/svg" width="80" height="80" viewBox="0 0 80 80">
    <g fill="none" fill-rule="evenodd">
        <g>
            <g transform="translate(-4234 -3467) translate(4234 3467)">
                <rect width="80" height="80" fill="#14D0D5" rx="40"/>
                <g fill="#FFF" fill-rule="nonzero">
                    <path d="M27.2 6.4h-4.8V4.8c0-2.651-2.149-4.8-4.8-4.8h-3.2c-2.651 0-4.8 2.149-4.8 4.8v1.6H4.8c-1.273 0-2.494.506-3.394 1.406C.506 8.706 0 9.927 0 11.2v14.4c0 2.651 2.149 4.8 4.8 4.8h22.4c2.651 0 4.8-2.149 4.8-4.8V11.2c0-2.651-2.149-4.8-4.8-4.8zM12.8 4.8c0-.884.716-1.6 1.6-1.6h3.2c.884 0 1.6.716 1.6 1.6v1.6h-6.4V4.8zm16 20.8c0 .884-.716 1.6-1.6 1.6H4.8c-.884 0-1.6-.716-1.6-1.6v-8.8c1.56.62 3.165 1.122 4.8 1.504v.944c0 .884.716 1.6 1.6 1.6.884 0 1.6-.716 1.6-1.6v-.336c1.591.217 3.194.329 4.8.336 1.606-.007 3.209-.12 4.8-.336v.336c0 .884.716 1.6 1.6 1.6.884 0 1.6-.716 1.6-1.6v-.944c1.635-.382 3.24-.885 4.8-1.504v8.8zm0-12.304c-1.556.657-3.161 1.192-4.8 1.6V14.4c0-.884-.716-1.6-1.6-1.6-.884 0-1.6.716-1.6 1.6v1.184c-3.182.48-6.418.48-9.6 0V14.4c0-.884-.716-1.6-1.6-1.6-.884 0-1.6.716-1.6 1.6v.528c-1.639-.408-3.244-.943-4.8-1.6V11.2c0-.884.716-1.6 1.6-1.6h22.4c.884 0 1.6.716 1.6 1.6v2.096z" transform="translate(24 25)"/>
                </g>
            </g>
        </g>
    </g>
</svg>
