<svg xmlns="http://www.w3.org/2000/svg" width="80" height="80" viewBox="0 0 80 80">
    <g fill="none" fill-rule="evenodd">
        <g>
            <g transform="translate(-2573 -3944) translate(2573 3944)">
                <rect width="80" height="80" fill="#FFF" rx="40"/>
                <path fill="#14D0D5" fill-rule="nonzero" d="M51.2 31.4h-4.8v-1.6c0-2.651-2.149-4.8-4.8-4.8h-3.2c-2.651 0-4.8 2.149-4.8 4.8v1.6h-4.8c-1.273 0-2.494.506-3.394 1.406-.9.9-1.406 2.121-1.406 3.394v14.4c0 2.651 2.149 4.8 4.8 4.8h22.4c2.651 0 4.8-2.149 4.8-4.8V36.2c0-2.651-2.149-4.8-4.8-4.8zm-14.4-1.6c0-.884.716-1.6 1.6-1.6h3.2c.884 0 1.6.716 1.6 1.6v1.6h-6.4v-1.6zm16 20.8c0 .884-.716 1.6-1.6 1.6H28.8c-.884 0-1.6-.716-1.6-1.6v-8.08H32v1.68c0 .884.716 1.6 1.6 1.6.884 0 1.6-.716 1.6-1.6v-1.68h9.6v1.68c0 .884.716 1.6 1.6 1.6.884 0 1.6-.716 1.6-1.6v-1.68h4.8v8.08zm0-11.2H27.2v-3.2c0-.884.716-1.6 1.6-1.6h22.4c.884 0 1.6.716 1.6 1.6v3.2z"/>
            </g>
        </g>
    </g>
</svg>
