<svg xmlns="http://www.w3.org/2000/svg" width="80" height="80" viewBox="0 0 80 80">
    <g fill="none" fill-rule="evenodd">
        <g>
            <g transform="translate(-4085 -3755) translate(4085 3755)">
                <rect width="80" height="80" fill="#14D0D5" rx="40"/>
                <path fill="#FFF" fill-rule="nonzero" d="M43.776 43.568c-2.204 1.777-5.348 1.777-7.552 0-.68-.566-1.69-.472-2.256.208-.566.68-.472 1.69.208 2.256 3.372 2.815 8.276 2.815 11.648 0 .44-.366.652-.939.555-1.503-.097-.564-.487-1.034-1.024-1.232-.537-.198-1.139-.095-1.579.271zm-8.24-5.904c.624.62 1.632.62 2.256 0 .62-.624.62-1.632 0-2.256-1.901-1.804-4.883-1.804-6.784 0-.457.391-.655 1.005-.515 1.59.14.584.597 1.04 1.182 1.18.584.141 1.198-.057 1.589-.514.3-.303.71-.473 1.136-.473.427 0 .836.17 1.136.473zm13.456-2.256c-1.901-1.804-4.883-1.804-6.784 0-.544.635-.507 1.581.084 2.172.59.591 1.537.628 2.172.084.3-.303.71-.473 1.136-.473.427 0 .836.17 1.136.473.624.62 1.632.62 2.256 0 .62-.624.62-1.632 0-2.256zM40 24c-8.837 0-16 7.163-16 16s7.163 16 16 16 16-7.163 16-16c0-4.243-1.686-8.313-4.686-11.314-3-3-7.07-4.686-11.314-4.686zm0 28.8c-7.07 0-12.8-5.73-12.8-12.8S32.93 27.2 40 27.2 52.8 32.93 52.8 40c0 3.395-1.349 6.65-3.749 9.051-2.4 2.4-5.656 3.749-9.051 3.749z"/>
            </g>
        </g>
    </g>
</svg>
