<svg xmlns="http://www.w3.org/2000/svg" width="80" height="80" viewBox="0 0 80 80">
    <g fill="none" fill-rule="evenodd">
        <g>
            <g transform="translate(-2355 -3944) translate(2355 3944)">
                <rect width="80" height="80" fill="#FFF" rx="40"/>
                <path fill="#14D0D5" fill-rule="nonzero" d="M55.94 34.287v-.102C53.51 27.49 47.161 23.023 40.04 23c-7.122-.023-13.5 4.404-15.97 11.083-.066.128-.112.266-.136.408-.615 1.762-.93 3.615-.934 5.48-.023 6.774 3.984 12.912 10.193 15.617 6.21 2.705 13.433 1.458 18.377-3.172 4.944-4.63 6.661-11.756 4.37-18.13zm-15.97-7.891c4.846.005 9.321 2.592 11.744 6.788h-2.037c-1.021-1.123-2.491-1.732-4.008-1.66-1.516.073-2.922.818-3.832 2.033-.595-.234-1.227-.36-1.867-.373-.64.012-1.271.139-1.866.373-.91-1.215-2.316-1.96-3.833-2.032-1.516-.073-2.986.536-4.008 1.659h-2.036c2.423-4.196 6.898-6.783 11.743-6.788zm7.637 10.182c0 .937-.76 1.697-1.697 1.697s-1.697-.76-1.697-1.697.76-1.697 1.697-1.697 1.697.76 1.697 1.697zm-11.88 0c0 .937-.759 1.697-1.696 1.697-.937 0-1.697-.76-1.697-1.697s.76-1.697 1.697-1.697 1.697.76 1.697 1.697zm4.243 16.97c-7.498 0-13.576-6.078-13.576-13.576.008-1.145.156-2.285.441-3.394h2.105c-.085 2.812 2.126 5.16 4.938 5.244 2.812.084 5.16-2.127 5.244-4.939.525-.303 1.172-.303 1.697 0 .084 2.812 2.432 5.023 5.244 4.939 2.811-.085 5.022-2.432 4.938-5.244h2.104c.286 1.109.434 2.249.441 3.394 0 7.498-6.078 13.576-13.576 13.576zm4.005-9.792c-2.337 1.885-5.672 1.885-8.01 0-.721-.6-1.793-.5-2.392.22-.6.723-.501 1.794.22 2.394 3.577 2.986 8.778 2.986 12.355 0 .466-.388.69-.996.588-1.594-.103-.599-.517-1.097-1.086-1.307-.57-.21-1.208-.1-1.675.287z"/>
            </g>
        </g>
    </g>
</svg>
