<svg xmlns="http://www.w3.org/2000/svg" width="64" height="64" viewBox="0 0 64 64">
    <g fill="none" fill-rule="evenodd">
        <g>
            <g transform="translate(-4558 -3563) translate(4558 3563)">
                <rect width="64" height="64" fill="#14D0D5" rx="32"/>
                <path fill="#FFF" fill-rule="nonzero" d="M46.362 40.64l-4.452-7.687c.91-1.673 1.386-3.549 1.38-5.454 0-6.35-5.148-11.499-11.5-11.499-6.35 0-11.498 5.148-11.498 11.499-.006 1.905.469 3.78 1.38 5.454L17.22 40.64c-.294.509-.293 1.136.002 1.645.295.509.84.821 1.427.819h4.715l2.398 4.04c.081.135.18.256.296.362.304.294.71.458 1.133.46h.23c.503-.069.945-.366 1.2-.805l3.17-5.454 3.17 5.503c.258.433.7.724 1.2.789h.23c.428.003.84-.163 1.15-.46.11-.1.204-.216.279-.345l2.398-4.041h4.715c.589.002 1.134-.311 1.429-.821.313-.521.313-1.172 0-1.692zm-19.187 2.514l-1.462-2.448c-.293-.494-.822-.799-1.396-.805h-2.842l2.349-4.074c1.617 1.56 3.656 2.61 5.864 3.023l-2.513 4.304zm4.616-7.442c-4.536 0-8.214-3.677-8.214-8.213s3.678-8.214 8.214-8.214c4.536 0 8.213 3.678 8.213 8.214 0 4.536-3.677 8.213-8.213 8.213zm7.474 4.19c-.574.005-1.103.31-1.396.804l-1.462 2.448-2.497-4.353c2.2-.422 4.232-1.472 5.848-3.023l2.35 4.074-2.843.05z"/>
            </g>
        </g>
    </g>
</svg>
