<svg xmlns="http://www.w3.org/2000/svg" width="80" height="80" viewBox="0 0 80 80">
    <g fill="none" fill-rule="evenodd">
        <g>
            <g transform="translate(-4378 -3467) translate(4378 3467)">
                <rect width="80" height="80" fill="#14D0D5" rx="40"/>
                <g fill="#FFF" fill-rule="nonzero">
                    <path d="M11.2 14.4c.884 0 1.6-.716 1.6-1.6 0-.884-.716-1.6-1.6-1.6-.884 0-1.6.716-1.6 1.6 0 .884.716 1.6 1.6 1.6zM16 0C7.163 0 0 7.163 0 16s7.163 16 16 16 16-7.163 16-16c0-4.243-1.686-8.313-4.686-11.314C24.314 1.686 20.244 0 16 0zm0 28.8C8.93 28.8 3.2 23.07 3.2 16S8.93 3.2 16 3.2 28.8 8.93 28.8 16c0 3.395-1.349 6.65-3.749 9.051-2.4 2.4-5.656 3.749-9.051 3.749zm4.8-11.2h-9.6c-.884 0-1.6.716-1.6 1.6 0 3.535 2.865 6.4 6.4 6.4s6.4-2.865 6.4-6.4c0-.884-.716-1.6-1.6-1.6zM16 22.4c-1.142-.001-2.197-.61-2.768-1.6h5.536c-.571.99-1.626 1.599-2.768 1.6zm4.8-11.2c-.884 0-1.6.716-1.6 1.6 0 .884.716 1.6 1.6 1.6.884 0 1.6-.716 1.6-1.6 0-.884-.716-1.6-1.6-1.6z" transform="translate(24 24)"/>
                </g>
            </g>
        </g>
    </g>
</svg>
