<svg xmlns="http://www.w3.org/2000/svg" width="80" height="80" viewBox="0 0 80 80">
    <g fill="none" fill-rule="evenodd">
        <g>
            <g transform="translate(-2355 -4400) translate(2355 4400)">
                <rect width="80" height="80" fill="#FFF" rx="40"/>
                <path fill="#14D0D5" fill-rule="nonzero" d="M55.946 36.559c-.206-.597-.744-1.017-1.374-1.07l-9.091-1.327-4.075-8.26c-.267-.552-.825-.902-1.438-.902-.612 0-1.171.35-1.438.901l-4.074 8.245-9.092 1.342c-.603.086-1.105.507-1.294 1.087-.173.565-.02 1.18.4 1.598l6.598 6.39-1.598 9.077c-.116.611.133 1.235.64 1.597.492.353 1.142.396 1.677.112l8.181-4.266 8.149 4.282c.224.127.477.193.735.192.338.001.669-.105.943-.304.506-.362.755-.986.639-1.598l-1.598-9.075 6.599-6.391c.47-.4.67-1.034.511-1.63zM46.12 42.95c-.38.368-.554.9-.464 1.422l1.15 6.695-6.007-3.196c-.47-.25-1.033-.25-1.502 0l-6.008 3.196 1.15-6.695c.091-.521-.082-1.054-.463-1.422l-4.793-4.793 6.727-.975c.525-.073.98-.402 1.214-.879l2.844-6.088 3.004 6.104c.234.477.689.806 1.214.879l6.727.975-4.793 4.777z"/>
            </g>
        </g>
    </g>
</svg>
