<svg xmlns="http://www.w3.org/2000/svg" width="40" height="40" viewBox="0 0 40 40">
    <g fill="none" fill-rule="evenodd">
        <g>
            <g transform="translate(-3889 -3611) translate(3889 3611)">
                <circle cx="20" cy="20" r="20" fill="#D8D8D8"/>
                <path fill="#FFF" fill-rule="nonzero" d="M27 12H13c-1.657 0-3 1.343-3 3v10c0 1.657 1.343 3 3 3h14c1.657 0 3-1.343 3-3V15c0-1.657-1.343-3-3-3zm-14 2h14c.552 0 1 .448 1 1l-8 4.88L12 15c0-.552.448-1 1-1zm15 11c0 .552-.448 1-1 1H13c-.552 0-1-.448-1-1v-7.72l7.48 4.57c.31.179.69.179 1 0L28 17.28V25z"/>
            </g>
        </g>
    </g>
</svg>
