<svg xmlns="http://www.w3.org/2000/svg" width="80" height="80" viewBox="0 0 80 80">
    <g fill="none" fill-rule="evenodd">
        <g>
            <g transform="translate(-4378 -3611) translate(4378 3611)">
                <rect width="80" height="80" fill="#14D0D5" rx="40"/>
                <g fill="#FFF" fill-rule="nonzero">
                    <path d="M22.75 21h-14C7.784 21 7 21.784 7 22.75s.784 1.75 1.75 1.75h14c.966 0 1.75-.784 1.75-1.75S23.716 21 22.75 21zm0-7h-10.5c-.966 0-1.75.784-1.75 1.75s.784 1.75 1.75 1.75h10.5c.966 0 1.75-.784 1.75-1.75S23.716 14 22.75 14zm7-10.5H24.5V1.75C24.5.784 23.716 0 22.75 0S21 .784 21 1.75V3.5h-3.5V1.75C17.5.784 16.716 0 15.75 0S14 .784 14 1.75V3.5h-3.5V1.75C10.5.784 9.716 0 8.75 0S7 .784 7 1.75V3.5H1.75C.784 3.5 0 4.284 0 5.25v24.5C0 32.65 2.35 35 5.25 35h21c2.9 0 5.25-2.35 5.25-5.25V5.25c0-.966-.784-1.75-1.75-1.75zM28 29.75c0 .966-.784 1.75-1.75 1.75h-21c-.966 0-1.75-.784-1.75-1.75V7H7v1.75c0 .966.784 1.75 1.75 1.75s1.75-.784 1.75-1.75V7H14v1.75c0 .966.784 1.75 1.75 1.75s1.75-.784 1.75-1.75V7H21v1.75c0 .966.784 1.75 1.75 1.75s1.75-.784 1.75-1.75V7H28v22.75z" transform="translate(24 23)"/>
                </g>
            </g>
        </g>
    </g>
</svg>
