<svg xmlns="http://www.w3.org/2000/svg" width="40" height="40" viewBox="0 0 40 40">
    <g fill="none" fill-rule="evenodd">
        <g>
            <g transform="translate(-3825 -3611) translate(3825 3611)">
                <circle cx="20" cy="20" r="20" fill="#D8D8D8"/>
                <path fill="#FFF" fill-rule="nonzero" d="M19.996 11.802c2.67 0 2.984.011 4.04.06.976.043 1.504.206 1.857.344.468.183.801.397 1.15.746.35.35.568.683.747 1.151.135.353.301.881.345 1.857.048 1.056.06 1.37.06 4.04s-.012 2.984-.06 4.04c-.044.976-.206 1.504-.345 1.857-.183.468-.397.801-.746 1.15-.35.35-.683.568-1.151.747-.353.135-.881.301-1.857.345-1.056.048-1.37.06-4.04.06s-2.984-.012-4.04-.06c-.976-.044-1.504-.207-1.857-.345-.468-.183-.801-.397-1.15-.746-.35-.35-.568-.683-.747-1.151-.135-.353-.301-.881-.345-1.857-.048-1.056-.06-1.37-.06-4.04s.012-2.984.06-4.04c.044-.976.207-1.504.345-1.857.183-.468.397-.801.746-1.15.35-.35.683-.568 1.151-.747.353-.135.881-.301 1.857-.345 1.056-.052 1.37-.06 4.04-.06zm0-1.802c-2.714 0-3.056.012-4.123.06-1.063.047-1.79.218-2.425.464-.658.254-1.214.599-1.77 1.155-.555.555-.896 1.115-1.154 1.77-.246.634-.417 1.36-.465 2.428-.047 1.063-.059 1.405-.059 4.119 0 2.714.012 3.056.06 4.123.047 1.064.218 1.79.464 2.429.254.658.599 1.214 1.155 1.77.555.555 1.115.896 1.77 1.154.634.246 1.36.417 2.428.464 1.067.048 1.405.06 4.123.06s3.056-.012 4.123-.06c1.063-.047 1.79-.218 2.429-.464.658-.254 1.214-.599 1.77-1.155.555-.555.896-1.115 1.154-1.77.246-.634.417-1.36.464-2.428.048-1.067.06-1.405.06-4.123s-.012-3.056-.06-4.123c-.047-1.063-.218-1.79-.464-2.429-.254-.658-.6-1.214-1.155-1.77-.555-.555-1.115-.896-1.77-1.154-.634-.246-1.36-.417-2.428-.464-1.071-.044-1.413-.056-4.127-.056zm0 4.861c-2.833 0-5.135 2.298-5.135 5.135 0 2.837 2.302 5.135 5.135 5.135 2.833 0 5.135-2.302 5.135-5.135 0-2.833-2.302-5.135-5.135-5.135zm0 8.468c-1.841 0-3.333-1.492-3.333-3.333 0-1.841 1.492-3.333 3.333-3.333 1.841 0 3.333 1.492 3.333 3.333 0 1.841-1.492 3.333-3.333 3.333zm6.536-8.67c0 .662-.537 1.198-1.199 1.198s-1.198-.536-1.198-1.198c0-.662.536-1.199 1.198-1.199.662 0 1.199.537 1.199 1.199z"/>
            </g>
        </g>
    </g>
</svg>
