<svg xmlns="http://www.w3.org/2000/svg" width="80" height="80" viewBox="0 0 80 80">
    <g fill="none" fill-rule="evenodd">
        <g>
            <g transform="translate(-2573 -4172) translate(2573 4172)">
                <rect width="80" height="80" fill="#FFF" rx="40"/>
                <path fill="#14D0D5" fill-rule="nonzero" d="M36.8 48h1.6v1.6c0 .884.716 1.6 1.6 1.6.884 0 1.6-.716 1.6-1.6V48h1.6c.884 0 1.6-.716 1.6-1.6 0-.884-.716-1.6-1.6-1.6h-1.6v-1.6c0-.884-.716-1.6-1.6-1.6-.884 0-1.6.716-1.6 1.6v1.6h-1.6c-.884 0-1.6.716-1.6 1.6 0 .884.716 1.6 1.6 1.6zm14.4-17.6H48v-1.6c0-2.651-2.149-4.8-4.8-4.8h-6.4c-2.651 0-4.8 2.149-4.8 4.8v1.6h-3.2c-2.651 0-4.8 2.149-4.8 4.8v16c0 2.651 2.149 4.8 4.8 4.8h22.4c2.651 0 4.8-2.149 4.8-4.8v-16c0-2.651-2.149-4.8-4.8-4.8zm-16-1.6c0-.884.716-1.6 1.6-1.6h6.4c.884 0 1.6.716 1.6 1.6v1.6h-9.6v-1.6zm17.6 22.4c0 .884-.716 1.6-1.6 1.6H28.8c-.884 0-1.6-.716-1.6-1.6V40h25.6v11.2zm0-14.4H27.2v-1.6c0-.884.716-1.6 1.6-1.6h22.4c.884 0 1.6.716 1.6 1.6v1.6z"/>
            </g>
        </g>
    </g>
</svg>
