<svg xmlns="http://www.w3.org/2000/svg" width="80" height="80" viewBox="0 0 80 80">
    <g fill="none" fill-rule="evenodd">
        <g>
            <g transform="translate(-2355 -4172) translate(2355 4172)">
                <rect width="80" height="80" fill="#FFF" rx="40"/>
                <path fill="#14D0D5" fill-rule="nonzero" d="M53.33 28.086c-3.663-3.663-9.454-4.096-13.62-1.018-4.405-3.277-10.594-2.591-14.176 1.57-3.582 4.162-3.339 10.384.557 14.253l12.434 12.434c.314.316.74.494 1.185.494.445 0 .872-.178 1.185-.494L53.33 42.89c1.964-1.963 3.067-4.626 3.067-7.402 0-2.777-1.103-5.44-3.067-7.403zm-2.354 12.451L39.71 51.787l-11.266-11.25c-2.03-2.038-2.639-5.095-1.545-7.756 1.093-2.66 3.676-4.406 6.552-4.428 1.88.005 3.68.755 5.008 2.087.313.316.74.493 1.185.493.445 0 .871-.177 1.185-.493 2.834-2.456 7.086-2.295 9.727.367 2.64 2.663 2.766 6.917.287 9.73h.133z"/>
            </g>
        </g>
    </g>
</svg>
