<svg xmlns="http://www.w3.org/2000/svg" width="80" height="80" viewBox="0 0 80 80">
    <g fill="none" fill-rule="evenodd">
        <g>
            <g transform="translate(-4085 -3611) translate(4085 3611)">
                <rect width="80" height="80" fill="#14D0D5" rx="40"/>
                <path fill="#FFF" fill-rule="nonzero" d="M40 50.8c.884 0 1.6-.716 1.6-1.6 0-.884-.716-1.6-1.6-1.6-.884 0-1.6.716-1.6 1.6 0 .884.716 1.6 1.6 1.6zm8 0c.884 0 1.6-.716 1.6-1.6 0-.884-.716-1.6-1.6-1.6-.884 0-1.6.716-1.6 1.6 0 .884.716 1.6 1.6 1.6zm0-6.4c.884 0 1.6-.716 1.6-1.6 0-.884-.716-1.6-1.6-1.6-.884 0-1.6.716-1.6 1.6 0 .884.716 1.6 1.6 1.6zm-8 0c.884 0 1.6-.716 1.6-1.6 0-.884-.716-1.6-1.6-1.6-.884 0-1.6.716-1.6 1.6 0 .884.716 1.6 1.6 1.6zm11.2-19.2h-1.6v-1.6c0-.884-.716-1.6-1.6-1.6-.884 0-1.6.716-1.6 1.6v1.6H33.6v-1.6c0-.884-.716-1.6-1.6-1.6-.884 0-1.6.716-1.6 1.6v1.6h-1.6c-2.651 0-4.8 2.149-4.8 4.8v22.4c0 2.651 2.149 4.8 4.8 4.8h22.4c2.651 0 4.8-2.149 4.8-4.8V30c0-2.651-2.149-4.8-4.8-4.8zm1.6 27.2c0 .884-.716 1.6-1.6 1.6H28.8c-.884 0-1.6-.716-1.6-1.6V38h25.6v14.4zm0-17.6H27.2V30c0-.884.716-1.6 1.6-1.6h1.6V30c0 .884.716 1.6 1.6 1.6.884 0 1.6-.716 1.6-1.6v-1.6h12.8V30c0 .884.716 1.6 1.6 1.6.884 0 1.6-.716 1.6-1.6v-1.6h1.6c.884 0 1.6.716 1.6 1.6v4.8zM32 44.4c.884 0 1.6-.716 1.6-1.6 0-.884-.716-1.6-1.6-1.6-.884 0-1.6.716-1.6 1.6 0 .884.716 1.6 1.6 1.6zm0 6.4c.884 0 1.6-.716 1.6-1.6 0-.884-.716-1.6-1.6-1.6-.884 0-1.6.716-1.6 1.6 0 .884.716 1.6 1.6 1.6z"/>
            </g>
        </g>
    </g>
</svg>
