<svg xmlns="http://www.w3.org/2000/svg" width="205" height="44" viewBox="0 0 205 44">
    <g fill="none" fill-rule="evenodd">
        <g>
            <g>
                <path fill="#FFF" d="M82.251 11.662L70.358 26.658v12.685c0 1.556-1.227 2.783-2.785 2.783s-2.832-1.227-2.832-2.783V26.658l-11.658-15.42c-.943-1.226-.708-3.018.52-3.962 1.274-.943 3.02-.66 3.964.566l10.054 13.251 10.194-12.92c.944-1.226 2.738-1.415 3.964-.473 1.228.991 1.416 2.736.472 3.962M90.057 24.064c-3.351 0-6.041 2.689-6.041 6.037s2.69 6.036 6.041 6.036c3.35 0 6.042-2.688 6.042-6.036 0-3.348-2.691-6.037-6.042-6.037m0 17.873c-6.513 0-11.846-5.281-11.846-11.836 0-6.508 5.333-11.837 11.846-11.837s11.846 5.33 11.893 11.884c-.047 6.508-5.38 11.79-11.893 11.79M123.607 30.053c0-3.442-2.832-6.224-6.23-6.224-3.445 0-6.23 2.782-6.23 6.224 0 3.443 2.785 6.225 6.23 6.225 3.398 0 6.23-2.782 6.23-6.225m5.71 0c0 6.603-5.38 11.931-11.94 11.931-2.501 0-4.861-.754-6.749-2.075-.378 1.132-1.463 1.981-2.737 1.981-1.605 0-2.88-1.273-2.88-2.83V9.069c0-1.556 1.275-2.877 2.88-2.877 1.557 0 2.832 1.321 2.832 2.877v11.035c1.934-1.226 4.2-1.98 6.655-1.98 6.56 0 11.94 5.328 11.94 11.93M137.807 27.035h10.006c-.944-1.791-2.69-2.83-4.814-2.83-2.171 0-4.06 1.086-5.192 2.83m13.734 4.763h-14.536c.66 2.688 3.068 4.763 5.994 4.763 1.51 0 3.728-.613 4.955-1.792 1.133-1.084 2.926-1.084 4.012.047 1.133 1.085 1.086 2.924-.048 4.01-2.595 2.498-6.23 3.347-8.92 3.347-6.56 0-11.799-5.282-11.799-11.837 0-6.46 5.24-11.836 11.8-11.836.707 0 1.368.047 2.076.189 3.21.613 5.947 2.593 7.646 5.422.755 1.321 1.605 3.066 1.51 4.622 0 .425-.188.897-.377 1.368-.378.895-1.18 1.697-2.313 1.697M166.875 39.155c0 1.603-1.275 2.877-2.88 2.877-1.982 0-3.917-.99-5.144-2.547-1.416-1.84-1.322-3.914-1.322-6.13V9.067c0-1.556 1.275-2.829 2.832-2.829 1.605 0 2.88 1.273 2.88 2.83v25.606c0 .141-.048.283-.048.425 0 .141.048.282.048.423 0 .425.33.802.755.802 1.604 0 2.879 1.274 2.879 2.83M179.992 39.155c0 1.603-1.274 2.877-2.879 2.877-1.982 0-3.917-.99-5.144-2.547-1.416-1.84-1.322-3.914-1.322-6.13V9.067c0-1.556 1.274-2.829 2.832-2.829 1.604 0 2.879 1.273 2.879 2.83v25.606c0 .141-.047.283-.047.425 0 .141.047.282.047.423 0 .425.33.802.755.802 1.605 0 2.88 1.274 2.88 2.83M188.485 27.035h10.005c-.943-1.791-2.69-2.83-4.813-2.83-2.172 0-4.06 1.086-5.192 2.83m13.734 4.763h-14.537c.661 2.688 3.068 4.763 5.995 4.763 1.51 0 3.728-.613 4.955-1.792 1.133-1.084 2.926-1.084 4.011.047 1.133 1.085 1.086 2.924-.047 4.01-2.595 2.498-6.23 3.347-8.92 3.347-6.56 0-11.8-5.282-11.8-11.837 0-6.46 5.24-11.836 11.8-11.836.709 0 1.369.047 2.077.189 3.21.613 5.947 2.593 7.646 5.422.755 1.321 1.605 3.066 1.51 4.622 0 .425-.189.897-.377 1.368-.378.895-1.18 1.697-2.313 1.697M43.923 14.682c0-.077 0-.153-.002-.23C43.8 6.52 37.303.104 29.335.104h-.29c-7.969 0-14.465 6.417-14.587 14.35C6.512 14.57.084 21.064.084 29.03v.29c0 7.965 6.427 14.459 14.372 14.575l.217.002h17.15v-6.044h-17.15c-.073 0-.145-.001-.217-.003-4.609-.115-8.323-3.897-8.323-8.53v-.29c0-4.633 3.714-8.415 8.323-8.53.072-.002.144-.003.217-.003h5.832v-5.814c0-.077 0-.153.003-.23.122-4.6 3.904-8.304 8.537-8.304h.29c4.632 0 8.414 3.705 8.536 8.304.002.077.003.153.003.23v17.125h6.049V14.682z" transform="translate(-2355 -3500) translate(2355 3500)"/>
                <path fill="#2DBABB" d="M37.874 31.807h-.001" transform="translate(-2355 -3500) translate(2355 3500)"/>
                <path fill="#72EDDE" d="M14.826 26.152h11.339V14.89c0-1.67 1.354-3.022 3.025-3.022 1.67 0 3.024 1.352 3.024 3.022v17.306H14.826c-1.67 0-3.025-1.353-3.025-3.022 0-1.67 1.354-3.022 3.025-3.022M37.873 43.896h1.467c2.53 0 4.583-2.05 4.583-4.58v-1.465h-6.05v6.045z" transform="translate(-2355 -3500) translate(2355 3500)"/>
            </g>
        </g>
    </g>
</svg>
