<svg xmlns="http://www.w3.org/2000/svg" width="168" height="36" viewBox="0 0 168 36">
    <g fill="none" fill-rule="evenodd">
        <g>
            <g>
                <path fill="#14D0D5" d="M67.367 9.542l-9.742 12.27V32.19c0 1.273-1.005 2.277-2.28 2.277-1.276 0-2.32-1.004-2.32-2.277V21.811L43.477 9.194c-.773-1.002-.58-2.469.425-3.24 1.044-.772 2.474-.54 3.247.463l8.234 10.841 8.35-10.572c.773-1.002 2.242-1.157 3.247-.386 1.005.811 1.16 2.238.387 3.242M73.76 19.69c-2.745 0-4.948 2.199-4.948 4.938 0 2.74 2.203 4.938 4.948 4.938 2.744 0 4.948-2.199 4.948-4.938 0-2.74-2.204-4.939-4.948-4.939m0 14.623c-5.335 0-9.703-4.321-9.703-9.684 0-5.324 4.368-9.685 9.703-9.685 5.334 0 9.702 4.36 9.74 9.723-.038 5.325-4.406 9.646-9.74 9.646M101.239 24.59c0-2.817-2.32-5.094-5.103-5.094-2.822 0-5.103 2.277-5.103 5.093 0 2.817 2.28 5.093 5.103 5.093 2.783 0 5.103-2.276 5.103-5.093m4.677 0c0 5.402-4.407 9.762-9.78 9.762-2.05 0-3.982-.617-5.528-1.698-.31.926-1.198 1.62-2.242 1.62-1.314 0-2.358-1.041-2.358-2.314V7.419c0-1.273 1.044-2.353 2.358-2.353 1.275 0 2.32 1.08 2.32 2.353v9.03c1.584-1.004 3.44-1.622 5.45-1.622 5.373 0 9.78 4.36 9.78 9.762M112.869 22.12h8.195c-.773-1.466-2.204-2.315-3.943-2.315-1.778 0-3.325.887-4.252 2.315m11.248 3.897h-11.906c.541 2.2 2.513 3.897 4.91 3.897 1.237 0 3.053-.502 4.058-1.467.928-.887 2.397-.887 3.286.039.928.888.89 2.392-.039 3.28-2.125 2.045-5.102 2.74-7.305 2.74-5.374 0-9.664-4.322-9.664-9.686 0-5.285 4.29-9.684 9.664-9.684.58 0 1.12.039 1.7.155 2.63.501 4.871 2.122 6.262 4.437.619 1.08 1.315 2.508 1.237 3.78 0 .348-.154.734-.308 1.12-.31.733-.967 1.389-1.895 1.389M136.676 32.036c0 1.312-1.044 2.353-2.358 2.353-1.624 0-3.208-.81-4.214-2.083-1.16-1.505-1.082-3.203-1.082-5.016V7.419c0-1.273 1.044-2.314 2.32-2.314 1.314 0 2.357 1.041 2.357 2.314V28.37c0 .116-.038.232-.038.348 0 .116.038.231.038.347 0 .347.27.656.619.656 1.314 0 2.358 1.042 2.358 2.315M147.42 32.036c0 1.312-1.044 2.353-2.358 2.353-1.624 0-3.209-.81-4.214-2.083-1.16-1.505-1.083-3.203-1.083-5.016V7.419c0-1.273 1.044-2.314 2.32-2.314 1.314 0 2.358 1.041 2.358 2.314V28.37c0 .116-.038.232-.038.348 0 .116.038.231.038.347 0 .347.27.656.619.656 1.314 0 2.358 1.042 2.358 2.315M162.57 22.12c-.773-1.466-2.204-2.315-3.942-2.315-1.779 0-3.325.887-4.253 2.315h8.195zm-8.852 3.897c.541 2.2 2.513 3.897 4.91 3.897 1.237 0 3.053-.502 4.058-1.467.928-.887 2.397-.887 3.286.039.928.888.889 2.392-.039 3.28-2.126 2.045-5.103 2.74-7.305 2.74-5.374 0-9.665-4.322-9.665-9.686 0-5.285 4.291-9.684 9.665-9.684.58 0 1.12.039 1.7.155 2.629.501 4.87 2.122 6.262 4.437.619 1.08 1.315 2.508 1.237 3.78 0 .348-.154.734-.309 1.12-.31.733-.967 1.389-1.894 1.389h-11.906zM35.975 12.012c0-.062 0-.125-.002-.187-.1-6.49-5.42-11.74-11.947-11.74h-.237c-6.527 0-11.848 5.25-11.948 11.741C5.333 11.92.07 17.234.07 23.751v.237c0 6.517 5.263 11.83 11.77 11.925l.178.002h14.048V30.97H12.017l-.177-.003c-3.775-.094-6.817-3.188-6.817-6.98v-.236c0-3.79 3.042-6.885 6.817-6.979.059-.002.118-.002.177-.002h4.777v-4.758c0-.062 0-.125.002-.187.1-3.764 3.199-6.794 6.993-6.794h.237c3.794 0 6.892 3.03 6.992 6.794.002.062.002.125.002.187v14.012h4.954V12.012z" transform="translate(-3761 -3542) translate(3761 3542)"/>
                <path fill="#72EDDE" d="M12.143 21.397h9.287v-9.215c0-1.365 1.11-2.472 2.477-2.472 1.368 0 2.478 1.107 2.478 2.472v14.16H12.143c-1.368 0-2.477-1.107-2.477-2.472 0-1.366 1.109-2.473 2.477-2.473M31.02 35.915h1.205c2.07 0 3.749-1.676 3.749-3.743V30.97h-4.955v4.946z" transform="translate(-3761 -3542) translate(3761 3542)"/>
            </g>
        </g>
    </g>
</svg>
